# xmcd
#
# Track frame offsets: 
#        150
#        14282
#        27592
#        41266
#        54928
#        67978
#        77946
#        89995
#        104546
#        119692
#        132514
#        147408
#        159641
#        172953
#        187171
#        200429
#        214852
#        229299
#        241513
#        256672
#        267772
#        278940
#        295730
#        308391
#        322163
#        336001
#
# Disc length: 4670 seconds
#
# Revision: 0
# Processed by: cddbd v1.5.2PL0 Copyright (c) Steve Scherf et al.
# Submitted via: ExactAudioCopy v1.0b3
#
DISCID=83123c1a
DTITLE=Muddy Waters - Muddy Waters - Chess Singles Collection [CD1]
DYEAR=1900
DGENRE=Blues
TTITLE0=Rollin' Stone
TTITLE1=Walkin' Blues
TTITLE2=You Gonna Need My Help
TTITLE3=Sad Letter Blues
TTITLE4=Louisiana Blues
TTITLE5=Evans Shuffle
TTITLE6=Long Distance Call
TTITLE7=Too Young To Know
TTITLE8=Honey Bee
TTITLE9=Appealing Blues (Hello Little Girl)
TTITLE10=Still A Fool
TTITLE11=My Fault
TTITLE12=She Moves Me
TTITLE13=Early Morning Blues
TTITLE14=All Night Long
TTITLE15=Country Boy
TTITLE16=Please Have Mercy
TTITLE17=I Can't Be Satisfied
TTITLE18=Standing Around Crying
TTITLE19=Gone To Main Street
TTITLE20=She's All Right
TTITLE21=Sad, Sad Day
TTITLE22=Turn The Lamp Down Low
TTITLE23=Who's Gonna Be Your Sweet Man When I'm Gone
TTITLE24=Mad Love (I Want You To Love Me)
TTITLE25=Blow Wind, Blow
EXTD=
EXTT0=
EXTT1=
EXTT2=
EXTT3=
EXTT4=
EXTT5=
EXTT6=
EXTT7=
EXTT8=
EXTT9=
EXTT10=
EXTT11=
EXTT12=
EXTT13=
EXTT14=
EXTT15=
EXTT16=
EXTT17=
EXTT18=
EXTT19=
EXTT20=
EXTT21=
EXTT22=
EXTT23=
EXTT24=
EXTT25=
PLAYORDER=
